{"title":"The Leopard [1963] 720p BRrip XviD AC3 - CODY\t","uid":6258320,"size":2873331458,"categoryP":"video","categoryS":"hd___movies","magnet":"?xt=urn:btih:9620fd903f19f985d812a7a3c10028410475e63f&amp;dn=The+Leopard+%5B1963%5D+720p+BRrip+XviD+AC3+-+CODY%09&amp;tr=udp%3A%2F%2Ftracker.openbittorrent.com%3A80&amp;tr=udp%3A%2F%2Fopen.demonii.com%3A1337&amp;tr=udp%3A%2F%2Ftracker.coppersurfer.tk%3A6969&amp;tr=udp%3A%2F%2Fexodus.desync.com%3A6969","seeders":9,"leechers":0,"uploader":"CODYBOSS1969","files":5,"time":1300665133,"description":"General\nComplete name                    : The.Leopard.1963.720p.BRrip.XviD.AC3 - CODY.avi\nFormat                           : AVI\nFormat/Info                      : Audio Video Interleave\nFormat profile                   : OpenDML\nFile size                        : 2.68 GiB\nDuration                         : 3h 5mn\nOverall bit rate                 : 2 065 Kbps\nWriting application              : VirtualDubMod 1.5.10.2 (build 2540/release)\nWriting library                  : VirtualDubMod build 2540/release\n\nVideo\nID                               : 0\nFormat                           : MPEG-4 Visual\nFormat profile                   : Advanced Simple@L5\nFormat settings, BVOP            : Yes\nFormat settings, QPel            : No\nFormat settings, GMC             : No warppoints\nFormat settings, Matrix          : Default (H.263)\nCodec ID                         : XVID\nCodec ID/Hint                    : XviD\nDuration                         : 3h 5mn\nBit rate                         : 1 798 Kbps\nWidth                            : 1 280 pixels\nHeight                           : 584 pixels\nDisplay aspect ratio             : 2.2:1\nFrame rate                       : 23.976 fps\nColor space                      : YUV\nChroma subsampling               : 4:2:0\nBit depth                        : 8 bits\nScan type                        : Progressive\nCompression mode                 : Lossy\nBits/(Pixel*Frame)               : 0.100\nStream size                      : 2.33 GiB (87%)\nWriting library                  : XviD 1.2.0.dev47 (UTC 2006-11-01)\n\nAudio\nID                               : 1\nFormat                           : AC-3\nFormat/Info                      : Audio Coding 3\nMode extension                   : CM (complete main)\nCodec ID                         : 2000\nDuration                         : 3h 5mn\nBit rate mode                    : Constant\nBit rate                         : 256 Kbps\nChannel(s)                       : 2 channels\nChannel positions                : Front: L R\nSampling rate                    : 48.0 KHz\nBit depth                        : 16 bits\nCompression mode                 : Lossy\nStream size                      : 340 MiB (12%)\nAlignment                        : Split accross interleaves\nInterleave, duration             : 42 ms (1.00 video frame)\nInterleave, preload duration     : 500 ms\n\n\n\n\nIMDB link  :                     &lt;a href=&quot; http://www.imdb.com/title/tt0057091/&quot; rel=&quot;nofollow&quot; target=&quot;_NEW&quot;&gt; http://www.imdb.com/title/tt0057091/&lt;/a&gt;    \n\n\n\nSubtitles included               :  English, Romanian         \n\n\n\nPlease seed at least 1,5:1. This way this torrent has a chance to survive !!!\n\n\nThanks. ENJOY !!!           ","torrent":{"xt":"urn:btih:9620fd903f19f985d812a7a3c10028410475e63f","amp;dn":"The+Leopard+%5B1963%5D+720p+BRrip+XviD+AC3+-+CODY%09","amp;tr":["udp%3A%2F%2Ftracker.openbittorrent.com%3A80","udp%3A%2F%2Fopen.demonii.com%3A1337","udp%3A%2F%2Ftracker.coppersurfer.tk%3A6969","udp%3A%2F%2Fexodus.desync.com%3A6969"],"infoHash":"9620fd903f19f985d812a7a3c10028410475e63f","infoHashBuffer":{"type":"Buffer","data":[150,32,253,144,63,25,249,133,216,18,167,163,193,0,40,65,4,117,230,63]},"announce":[],"urlList":[]}}